<svg xmlns="http://www.w3.org/2000/svg" width="42" height="42" viewBox="0 0 42 42"><path class="cls-1" d="M28.87 0q-.6 0-1.2.06c-.15.01-.3.04-.44.06-.25.03-.49.06-.74.11-.17.03-.35.07-.52.11-.2.04-.4.1-.6.15s-.38.1-.57.16c-.17.06-.33.13-.5.19-.44.16-.86.35-1.28.55-.08.05-.17.08-.25.12-.22.12-.43.25-.64.38-.11.07-.23.13-.35.21-.2.13-.4.27-.6.41-.06.05-.12.08-.18.13A13.11 13.11 0 0 0 0 13.12C0 25 7.64 35.75 20.43 41.87a1.315 1.315 0 0 0 1.14 0C34.36 35.75 42 25 42 13.12A13.143 13.143 0 0 0 28.87 0zM21 39.23C9.48 33.51 2.625 23.79 2.625 13.12a10.464 10.464 0 0 1 16.4-8.65 13.082 13.082 0 0 0-3.28 8.65 1.31 1.31 0 1 0 2.62 0 10.5 10.5 0 0 1 3.56-7.85c.2-.18.41-.35.62-.51a1.431 1.431 0 0 0 .15-.11c.21-.15.42-.29.64-.43a1.739 1.739 0 0 1 .18-.11c.21-.13.43-.25.65-.36.08-.04.15-.07.23-.11.21-.1.42-.19.64-.28.1-.04.19-.07.29-.11.2-.07.41-.14.62-.2.12-.04.25-.07.37-.1.19-.05.38-.09.57-.13.17-.03.35-.06.52-.08.15-.02.3-.05.45-.06a8.553 8.553 0 0 1 1.01-.06 10.518 10.518 0 0 1 10.5 10.5C39.37 23.79 32.52 33.51 21 39.23zm7.87-33.98a1.31 1.31 0 0 0 0 2.62 5.256 5.256 0 0 1 5.25 5.25 1.315 1.315 0 1 0 2.63 0 7.88 7.88 0 0 0-7.88-7.87z"/></svg>