<svg xmlns="http://www.w3.org/2000/svg" width="41.969" height="42" viewBox="0 0 41.969 42"><path class="cls-1" d="M26.879 0a15.069 15.069 0 0 0-13.073 22.6L1.133 35.28a3.937 3.937 0 0 0 5.566 5.57l12.674-12.68a14.945 14.945 0 0 0 7.506 2.02 15.1 15.1 0 0 0 0-30.19zM4.844 38.99a1.31 1.31 0 1 1-1.856-1.85L15.33 24.79a15.818 15.818 0 0 0 1.855 1.86zm22.035-11.43a12.47 12.47 0 1 1 12.466-12.47 12.479 12.479 0 0 1-12.466 12.47zm6.907-19.55a1.31 1.31 0 0 0-1.856 1.85 7.409 7.409 0 0 1 0 10.46 1.316 1.316 0 0 0 0 1.86 1.322 1.322 0 0 0 1.855 0 10.033 10.033 0 0 0 .001-14.17z"/></svg>