<svg xmlns="http://www.w3.org/2000/svg" width="42" height="42" viewBox="0 0 42 42"><path d="M38.226 9.23h-5.578V3.61A3.7 3.7 0 0 0 28.875 0h-25.1A3.7 3.7 0 0 0 .002 3.61v25.23a3.943 3.943 0 0 0 6.706 2.8l2.81-2.72a3.743 3.743 0 0 0 3.609 2.62h11.19a3.263 3.263 0 0 1 2.336.98l8.626 8.33a3.944 3.944 0 0 0 6.723-2.79V12.83a3.691 3.691 0 0 0-3.776-3.6zM4.867 29.76a1.335 1.335 0 0 1-1.855 0 1.272 1.272 0 0 1-.387-.92V3.61a1.083 1.083 0 0 1 1.148-.99h25.1a1.083 1.083 0 0 1 1.148.99V18.7a1.076 1.076 0 0 1-1.148.99h-11.19a5.848 5.848 0 0 0-4.159 1.71zm34.508 8.3a1.312 1.312 0 0 1-2.258.91l-8.627-8.33a5.889 5.889 0 0 0-4.175-1.73h-11.19a1.076 1.076 0 0 1-1.148-.98v-1.38l3.388-3.28a3.262 3.262 0 0 1 2.32-.96h11.19a3.7 3.7 0 0 0 3.773-3.61v-6.85h5.578a1.076 1.076 0 0 1 1.149.98v25.23zM16.406 15.75a1.97 1.97 0 1 0-1.969-1.97 1.969 1.969 0 0 0 1.969 1.97zm-7.875-3.94a1.97 1.97 0 1 0 1.969 1.97 1.969 1.969 0 0 0-1.969-1.97zm15.75 3.94a1.97 1.97 0 1 0-1.969-1.97 1.969 1.969 0 0 0 1.969 1.97z"/></svg>