<svg xmlns="http://www.w3.org/2000/svg" width="42" height="42" viewBox="0 0 42 42"><path class="cls-1" d="M21 28.87c-6.513 0-11.812-6.47-11.812-14.43a16.143 16.143 0 0 1 3.361-10.1A10.788 10.788 0 0 1 21 0c6.514 0 11.813 6.48 11.813 14.44S27.513 28.87 21 28.87zm0-26.25c-5.066 0-9.188 5.3-9.188 11.82s4.124 11.81 9.189 11.81 9.187-5.3 9.187-11.81S26.065 2.62 21 2.62zM33.47 42H3.937A3.944 3.944 0 0 1 0 38.06a11.826 11.826 0 0 1 11.813-11.81 1.31 1.31 0 1 1 0 2.62 9.2 9.2 0 0 0-9.188 9.19 1.308 1.308 0 0 0 1.312 1.31h34.125a1.308 1.308 0 0 0 1.313-1.31 9.2 9.2 0 0 0-9.188-9.19 1.31 1.31 0 1 1 0-2.62A11.826 11.826 0 0 1 42 38.06 3.945 3.945 0 0 1 38.062 42h-4.593z"/></svg>