<svg xmlns="http://www.w3.org/2000/svg" width="18" height="18" viewBox="0 0 18 18"><path d="M15.192 14.773a.676.676 0 0 1-.68.68H2.588a.676.676 0 0 1-.68-.68V7.545H3.48a4.879 4.879 0 0 0-.223 1.461 5.245 5.245 0 0 0 5.32 5.164 5.248 5.248 0 0 0 5.332-5.164 4.881 4.881 0 0 0-.223-1.461h1.506v7.228zm-3.168-5.945a3.391 3.391 0 0 1-3.447 3.335 3.388 3.388 0 0 1-3.435-3.335 3.388 3.388 0 0 1 3.435-3.335 3.391 3.391 0 0 1 3.447 3.335zm3.168-4.016a.771.771 0 0 1-.77.77h-1.94a.771.771 0 0 1-.77-.77v-1.84a.771.771 0 0 1 .77-.77h1.941a.771.771 0 0 1 .77.77v1.84zm1.941-2.32a2.209 2.209 0 0 0-2.2-2.2H2.2a2.209 2.209 0 0 0-2.2 2.2V15.23a2.209 2.209 0 0 0 2.2 2.2h12.735a2.209 2.209 0 0 0 2.2-2.2V2.492z"/></svg>