<svg xmlns="http://www.w3.org/2000/svg" width="15" height="20" viewBox="0 0 15 20"><path class="cls-1" d="M0 7.526c0 1.461.58 3.592 2.175 4.074a1.123 1.123 0 0 0 .19.034c.368 0 .58-1.026.58-1.316 0-.346-.881-1.082-.881-2.521a5.025 5.025 0 0 1 5.22-5.109c2.532 0 4.406 1.439 4.406 4.082 0 1.974-.792 5.678-3.357 5.678a1.651 1.651 0 0 1-1.718-1.629C6.614 9.411 7.6 8.05 7.6 6.6A1.437 1.437 0 0 0 6.161 5C4.885 5.005 4.1 6.433 4.1 7.56a4.368 4.368 0 0 0 .357 1.885C3.949 11.653 2.9 14.944 2.9 17.219c0 .7.1 1.394.167 2.1l.1.112.156-.056C5.2 16.806 5.131 16.3 5.979 12.947a3.016 3.016 0 0 0 2.577 1.338c3.949 0 5.722-3.848 5.722-7.317 0-3.692-3.19-6.1-6.693-6.1C3.77.867 0 3.41 0 7.526z"/></svg>