<svg xmlns="http://www.w3.org/2000/svg" width="18" height="15" viewBox="0 0 18 15"><path class="cls-1" d="M18.07 2.418a7.218 7.218 0 0 1-2.07.558A3.593 3.593 0 0 0 17.579.99a7.1 7.1 0 0 1-2.287.87 3.606 3.606 0 0 0-6.235 2.465 4.069 4.069 0 0 0 .089.825 10.24 10.24 0 0 1-7.429-3.77A3.608 3.608 0 0 0 2.833 6.2 3.629 3.629 0 0 1 1.2 5.742v.045a3.6 3.6 0 0 0 2.894 3.535 3.812 3.812 0 0 1-.948.123 4.534 4.534 0 0 1-.68-.056 3.609 3.609 0 0 0 3.369 2.5 7.216 7.216 0 0 1-4.473 1.539 7.461 7.461 0 0 1-.87-.044A10.18 10.18 0 0 0 6.023 15 10.18 10.18 0 0 0 16.274 4.749c0-.156 0-.312-.011-.468a7.745 7.745 0 0 0 1.807-1.863z"/></svg>