<svg xmlns="http://www.w3.org/2000/svg" width="30" height="28" viewBox="0 0 30 28"><path d="M29.953 8.125q.36 1-2.344 4.594-.38.5-1.02 1.32-1.22 1.563-1.41 2.047-.266.64.22 1.266.265.327 1.265 1.28h.016l.064.063q2.203 2.047 2.984 3.453.047.077.102.194t.11.412-.01.53-.39.43-.922.196l-4 .063q-.373.08-.873-.078t-.813-.344l-.313-.187q-.47-.327-1.093-1t-1.07-1.21-.95-.906-.883-.242q-.047.017-.125.056t-.267.226-.336.46-.265.812-.102 1.21q0 .233-.052.43t-.118.29l-.064.076q-.28.297-.83.344h-1.8q-1.11.064-2.28-.257t-2.055-.828-1.61-1.03-1.1-.9l-.39-.375q-.155-.155-.43-.47t-1.116-1.42-1.655-2.36-1.92-3.292T.07 8.73q-.093-.25-.093-.423t.048-.25l.067-.09q.234-.296.89-.296l4.282-.03q.187.03.36.1t.25.137l.077.047q.25.172.375.5.313.78.72 1.617t.64 1.273l.25.453q.453.938.875 1.625t.76 1.07.645.603.53.22.423-.08q.03-.015.077-.077t.187-.344.21-.732.15-1.266 0-1.952q-.03-.62-.14-1.14t-.22-.72l-.093-.182q-.39-.53-1.33-.672-.204-.03.08-.375.263-.297.59-.47.827-.405 3.733-.374 1.28.015 2.11.202.312.076.522.21t.32.374.163.5.054.71-.018.86-.04 1.102-.022 1.29q0 .17-.015.655t-.01.75.054.635.18.61.353.382l.266.063q.14.032.406-.173t.592-.54.813-1.046 1.063-1.68q.938-1.624 1.672-3.515.06-.157.154-.274t.17-.165l.064-.046.077-.04.204-.048.314-.007 4.5-.03q.61-.08 1 .037t.485.26z"/></svg>