<svg xmlns="http://www.w3.org/2000/svg" width="20" height="15" viewBox="0 0 20 15"><path class="cls-1" d="M14.277 7.861a.692.692 0 0 1-.335.6l-5.71 3.572a.656.656 0 0 1-.379.112.759.759 0 0 1-.346-.089.722.722 0 0 1-.368-.625V4.292a.722.722 0 0 1 .368-.625.705.705 0 0 1 .725.022l5.711 3.569a.692.692 0 0 1 .334.603zm5.711 0a22.626 22.626 0 0 0-.346-4.841A2.557 2.557 0 0 0 17.479 1 66.933 66.933 0 0 0 9.994.723 66.934 66.934 0 0 0 2.51 1 2.544 2.544 0 0 0 .357 3.02 21.931 21.931 0 0 0 0 7.861 22.624 22.624 0 0 0 .346 12.7a2.557 2.557 0 0 0 2.164 2.021A66.99 66.99 0 0 0 9.994 15a66.989 66.989 0 0 0 7.484-.279 2.532 2.532 0 0 0 2.153-2.021 21.932 21.932 0 0 0 .357-4.839z"/></svg>