<svg style="display:none"><symbol viewBox="0 0 10 20" id="fb"><path d="M9.7 1A21.838 21.838 0 0 0 7.154.867 3.98 3.98 0 0 0 2.9 5.228V7.66H.06v3.3H2.9v8.466h3.417v-8.464H9.15l.435-3.3H6.317v-2.11a1.365 1.365 0 0 1 1.629-1.606H9.7V1z"/></symbol><symbol viewBox="0 0 42 42" id="icon_contact"><path d="M38.226 9.23h-5.578V3.61A3.7 3.7 0 0 0 28.875 0h-25.1A3.7 3.7 0 0 0 .002 3.61v25.23a3.943 3.943 0 0 0 6.706 2.8l2.81-2.72a3.743 3.743 0 0 0 3.609 2.62h11.19a3.263 3.263 0 0 1 2.336.98l8.626 8.33a3.944 3.944 0 0 0 6.723-2.79V12.83a3.691 3.691 0 0 0-3.776-3.6zM4.867 29.76a1.335 1.335 0 0 1-1.855 0 1.272 1.272 0 0 1-.387-.92V3.61a1.083 1.083 0 0 1 1.148-.99h25.1a1.083 1.083 0 0 1 1.148.99V18.7a1.076 1.076 0 0 1-1.148.99h-11.19a5.848 5.848 0 0 0-4.159 1.71zm34.508 8.3a1.312 1.312 0 0 1-2.258.91l-8.627-8.33a5.889 5.889 0 0 0-4.175-1.73h-11.19a1.076 1.076 0 0 1-1.148-.98v-1.38l3.388-3.28a3.262 3.262 0 0 1 2.32-.96h11.19a3.7 3.7 0 0 0 3.773-3.61v-6.85h5.578a1.076 1.076 0 0 1 1.149.98v25.23zM16.406 15.75a1.97 1.97 0 1 0-1.969-1.97 1.969 1.969 0 0 0 1.969 1.97zm-7.875-3.94a1.97 1.97 0 1 0 1.969 1.97 1.969 1.969 0 0 0-1.969-1.97zm15.75 3.94a1.97 1.97 0 1 0-1.969-1.97 1.969 1.969 0 0 0 1.969 1.97z"/></symbol><symbol viewBox="0 0 42 42" id="icon_love"><path class="cls-1" d="M28.87 0q-.6 0-1.2.06c-.15.01-.3.04-.44.06-.25.03-.49.06-.74.11-.17.03-.35.07-.52.11-.2.04-.4.1-.6.15s-.38.1-.57.16c-.17.06-.33.13-.5.19-.44.16-.86.35-1.28.55-.08.05-.17.08-.25.12-.22.12-.43.25-.64.38-.11.07-.23.13-.35.21-.2.13-.4.27-.6.41-.06.05-.12.08-.18.13A13.11 13.11 0 0 0 0 13.12C0 25 7.64 35.75 20.43 41.87a1.315 1.315 0 0 0 1.14 0C34.36 35.75 42 25 42 13.12A13.143 13.143 0 0 0 28.87 0zM21 39.23C9.48 33.51 2.625 23.79 2.625 13.12a10.464 10.464 0 0 1 16.4-8.65 13.082 13.082 0 0 0-3.28 8.65 1.31 1.31 0 1 0 2.62 0 10.5 10.5 0 0 1 3.56-7.85c.2-.18.41-.35.62-.51a1.431 1.431 0 0 0 .15-.11c.21-.15.42-.29.64-.43a1.739 1.739 0 0 1 .18-.11c.21-.13.43-.25.65-.36.08-.04.15-.07.23-.11.21-.1.42-.19.64-.28.1-.04.19-.07.29-.11.2-.07.41-.14.62-.2.12-.04.25-.07.37-.1.19-.05.38-.09.57-.13.17-.03.35-.06.52-.08.15-.02.3-.05.45-.06a8.553 8.553 0 0 1 1.01-.06 10.518 10.518 0 0 1 10.5 10.5C39.37 23.79 32.52 33.51 21 39.23zm7.87-33.98a1.31 1.31 0 0 0 0 2.62 5.256 5.256 0 0 1 5.25 5.25 1.315 1.315 0 1 0 2.63 0 7.88 7.88 0 0 0-7.88-7.87z"/></symbol><symbol viewBox="0 0 41.969 42" id="icon_search"><path class="cls-1" d="M26.879 0a15.069 15.069 0 0 0-13.073 22.6L1.133 35.28a3.937 3.937 0 0 0 5.566 5.57l12.674-12.68a14.945 14.945 0 0 0 7.506 2.02 15.1 15.1 0 0 0 0-30.19zM4.844 38.99a1.31 1.31 0 1 1-1.856-1.85L15.33 24.79a15.818 15.818 0 0 0 1.855 1.86zm22.035-11.43a12.47 12.47 0 1 1 12.466-12.47 12.479 12.479 0 0 1-12.466 12.47zm6.907-19.55a1.31 1.31 0 0 0-1.856 1.85 7.409 7.409 0 0 1 0 10.46 1.316 1.316 0 0 0 0 1.86 1.322 1.322 0 0 0 1.855 0 10.033 10.033 0 0 0 .001-14.17z"/></symbol><symbol viewBox="0 0 42 42" id="icon_user"><path class="cls-1" d="M21 28.87c-6.513 0-11.812-6.47-11.812-14.43a16.143 16.143 0 0 1 3.361-10.1A10.788 10.788 0 0 1 21 0c6.514 0 11.813 6.48 11.813 14.44S27.513 28.87 21 28.87zm0-26.25c-5.066 0-9.188 5.3-9.188 11.82s4.124 11.81 9.189 11.81 9.187-5.3 9.187-11.81S26.065 2.62 21 2.62zM33.47 42H3.937A3.944 3.944 0 0 1 0 38.06a11.826 11.826 0 0 1 11.813-11.81 1.31 1.31 0 1 1 0 2.62 9.2 9.2 0 0 0-9.188 9.19 1.308 1.308 0 0 0 1.312 1.31h34.125a1.308 1.308 0 0 0 1.313-1.31 9.2 9.2 0 0 0-9.188-9.19 1.31 1.31 0 1 1 0-2.62A11.826 11.826 0 0 1 42 38.06 3.945 3.945 0 0 1 38.062 42h-4.593z"/></symbol><symbol viewBox="0 0 18 18" id="in"><path d="M15.192 14.773a.676.676 0 0 1-.68.68H2.588a.676.676 0 0 1-.68-.68V7.545H3.48a4.879 4.879 0 0 0-.223 1.461 5.245 5.245 0 0 0 5.32 5.164 5.248 5.248 0 0 0 5.332-5.164 4.881 4.881 0 0 0-.223-1.461h1.506v7.228zm-3.168-5.945a3.391 3.391 0 0 1-3.447 3.335 3.388 3.388 0 0 1-3.435-3.335 3.388 3.388 0 0 1 3.435-3.335 3.391 3.391 0 0 1 3.447 3.335zm3.168-4.016a.771.771 0 0 1-.77.77h-1.94a.771.771 0 0 1-.77-.77v-1.84a.771.771 0 0 1 .77-.77h1.941a.771.771 0 0 1 .77.77v1.84zm1.941-2.32a2.209 2.209 0 0 0-2.2-2.2H2.2a2.209 2.209 0 0 0-2.2 2.2V15.23a2.209 2.209 0 0 0 2.2 2.2h12.735a2.209 2.209 0 0 0 2.2-2.2V2.492z"/></symbol><symbol viewBox="0 0 15 20" id="pt"><path class="cls-1" d="M0 7.526c0 1.461.58 3.592 2.175 4.074a1.123 1.123 0 0 0 .19.034c.368 0 .58-1.026.58-1.316 0-.346-.881-1.082-.881-2.521a5.025 5.025 0 0 1 5.22-5.109c2.532 0 4.406 1.439 4.406 4.082 0 1.974-.792 5.678-3.357 5.678a1.651 1.651 0 0 1-1.718-1.629C6.614 9.411 7.6 8.05 7.6 6.6A1.437 1.437 0 0 0 6.161 5C4.885 5.005 4.1 6.433 4.1 7.56a4.368 4.368 0 0 0 .357 1.885C3.949 11.653 2.9 14.944 2.9 17.219c0 .7.1 1.394.167 2.1l.1.112.156-.056C5.2 16.806 5.131 16.3 5.979 12.947a3.016 3.016 0 0 0 2.577 1.338c3.949 0 5.722-3.848 5.722-7.317 0-3.692-3.19-6.1-6.693-6.1C3.77.867 0 3.41 0 7.526z"/></symbol><symbol viewBox="0 0 18 15" id="tw"><path class="cls-1" d="M18.07 2.418a7.218 7.218 0 0 1-2.07.558A3.593 3.593 0 0 0 17.579.99a7.1 7.1 0 0 1-2.287.87 3.606 3.606 0 0 0-6.235 2.465 4.069 4.069 0 0 0 .089.825 10.24 10.24 0 0 1-7.429-3.77A3.608 3.608 0 0 0 2.833 6.2 3.629 3.629 0 0 1 1.2 5.742v.045a3.6 3.6 0 0 0 2.894 3.535 3.812 3.812 0 0 1-.948.123 4.534 4.534 0 0 1-.68-.056 3.609 3.609 0 0 0 3.369 2.5 7.216 7.216 0 0 1-4.473 1.539 7.461 7.461 0 0 1-.87-.044A10.18 10.18 0 0 0 6.023 15 10.18 10.18 0 0 0 16.274 4.749c0-.156 0-.312-.011-.468a7.745 7.745 0 0 0 1.807-1.863z"/></symbol><symbol viewBox="0 0 30 28" id="vk"><path d="M29.953 8.125q.36 1-2.344 4.594-.38.5-1.02 1.32-1.22 1.563-1.41 2.047-.266.64.22 1.266.265.327 1.265 1.28h.016l.064.063q2.203 2.047 2.984 3.453.047.077.102.194t.11.412-.01.53-.39.43-.922.196l-4 .063q-.373.08-.873-.078t-.813-.344l-.313-.187q-.47-.327-1.093-1t-1.07-1.21-.95-.906-.883-.242q-.047.017-.125.056t-.267.226-.336.46-.265.812-.102 1.21q0 .233-.052.43t-.118.29l-.064.076q-.28.297-.83.344h-1.8q-1.11.064-2.28-.257t-2.055-.828-1.61-1.03-1.1-.9l-.39-.375q-.155-.155-.43-.47t-1.116-1.42-1.655-2.36-1.92-3.292T.07 8.73q-.093-.25-.093-.423t.048-.25l.067-.09q.234-.296.89-.296l4.282-.03q.187.03.36.1t.25.137l.077.047q.25.172.375.5.313.78.72 1.617t.64 1.273l.25.453q.453.938.875 1.625t.76 1.07.645.603.53.22.423-.08q.03-.015.077-.077t.187-.344.21-.732.15-1.266 0-1.952q-.03-.62-.14-1.14t-.22-.72l-.093-.182q-.39-.53-1.33-.672-.204-.03.08-.375.263-.297.59-.47.827-.405 3.733-.374 1.28.015 2.11.202.312.076.522.21t.32.374.163.5.054.71-.018.86-.04 1.102-.022 1.29q0 .17-.015.655t-.01.75.054.635.18.61.353.382l.266.063q.14.032.406-.173t.592-.54.813-1.046 1.063-1.68q.938-1.624 1.672-3.515.06-.157.154-.274t.17-.165l.064-.046.077-.04.204-.048.314-.007 4.5-.03q.61-.08 1 .037t.485.26z"/></symbol><symbol viewBox="0 0 20 15" id="yt"><path class="cls-1" d="M14.277 7.861a.692.692 0 0 1-.335.6l-5.71 3.572a.656.656 0 0 1-.379.112.759.759 0 0 1-.346-.089.722.722 0 0 1-.368-.625V4.292a.722.722 0 0 1 .368-.625.705.705 0 0 1 .725.022l5.711 3.569a.692.692 0 0 1 .334.603zm5.711 0a22.626 22.626 0 0 0-.346-4.841A2.557 2.557 0 0 0 17.479 1 66.933 66.933 0 0 0 9.994.723 66.934 66.934 0 0 0 2.51 1 2.544 2.544 0 0 0 .357 3.02 21.931 21.931 0 0 0 0 7.861 22.624 22.624 0 0 0 .346 12.7a2.557 2.557 0 0 0 2.164 2.021A66.99 66.99 0 0 0 9.994 15a66.989 66.989 0 0 0 7.484-.279 2.532 2.532 0 0 0 2.153-2.021 21.932 21.932 0 0 0 .357-4.839z"/></symbol></svg>